Coordinates
version=1
nRows=15
nColumns=63
inDegrees=yes

Units are S.I. units (second, meters, Newtons, ...)
If the header above contains a line with 'inDegrees', this indicates whether rotational values are in degrees (yes) or radians (no).

endheader
time	pelvis_tilt	pelvis_list	pelvis_rotation	pelvis_tx	pelvis_ty	pelvis_tz	hip_flexion_r	hip_adduction_r	hip_rotation_r	knee_angle_r	knee_angle_r_beta	ankle_angle_r	subtalar_angle_r	mtp_angle_r	hip_flexion_l	hip_adduction_l	hip_rotation_l	knee_angle_l	knee_angle_l_beta	ankle_angle_l	subtalar_angle_l	mtp_angle_l	L5_S1_Flex_Ext	L5_S1_Lat_Bending	L5_S1_axial_rotation	L4_L5_Flex_Ext	L4_L5_Lat_Bending	L4_L5_axial_rotation	L3_L4_Flex_Ext	L3_L4_Lat_Bending	L3_L4_axial_rotation	L2_L3_Flex_Ext	L2_L3_Lat_Bending	L2_L3_axial_rotation	L1_L2_Flex_Ext	L1_L2_Lat_Bending	L1_L2_axial_rotation	L1_T12_Flex_Ext	L1_T12_Lat_Bending	L1_T12_axial_rotation	Abs_r3	Abs_r2	Abs_r1	Abs_t1	Abs_t2	neck_flexion	neck_bending	neck_rotation	arm_flex_r	arm_add_r	arm_rot_r	elbow_flex_r	pro_sup_r	wrist_flex_r	wrist_dev_r	arm_flex_l	arm_add_l	arm_rot_l	elbow_flex_l	pro_sup_l	wrist_flex_l	wrist_dev_l
5.483333	-3.536261	-7.353702	94.148090	0.185882	1.169719	0.348184	-0.551794	-2.627940	0.764160	0.621575	0.010849	16.479075	7.943392	0.000000	0.478538	1.786513	-4.429447	1.599355	0.027914	11.999045	8.522831	0.000000	0.013545	0.098243	1.097910	0.025154	0.130663	1.166529	0.022253	0.238868	1.166529	0.015480	0.238868	0.960671	0.012578	0.200338	0.892052	0.007740	0.152179	0.823432	0.096750	1.111347	6.106244	0.000000	0.000000	11.262887	-4.754031	15.520464	6.099295	-19.835443	94.587300	12.163267	8.084471	-2.682798	-8.902731	9.927591	-15.232112	128.330401	8.675004	6.715988	-11.682071	-15.658628
5.500000	-3.574189	-7.513114	94.272953	0.185893	1.169973	0.349447	-0.325912	-2.672750	0.460643	0.662623	0.011565	16.380188	8.074711	0.000000	0.788820	1.825855	-4.401395	1.766745	0.030836	11.703451	8.600859	0.000000	0.029092	0.089580	1.063285	0.054027	0.119142	1.129740	0.047795	0.217806	1.129740	0.033249	0.217806	0.930374	0.027015	0.182672	0.863919	0.016623	0.138760	0.797464	0.207801	1.013352	5.913672	0.000000	0.000000	11.352628	-4.674009	15.488534	6.610144	-20.044856	93.088068	12.418683	8.510157	-2.824293	-9.614178	10.424588	-15.551952	125.538063	8.656553	6.102078	-9.876222	-15.976370
5.516667	-3.621370	-7.676336	94.435035	0.185942	1.170123	0.350797	-0.093381	-2.722693	0.138603	0.708747	0.012370	16.307928	8.165886	0.000000	1.117844	1.869802	-4.216973	1.975494	0.034479	11.346541	8.456123	0.000000	0.042782	0.076535	1.010299	0.079451	0.101791	1.073442	0.070287	0.186087	1.073442	0.048896	0.186087	0.884011	0.039727	0.156070	0.820868	0.024446	0.118552	0.757724	0.305588	0.865777	5.618979	0.000000	0.000000	11.574552	-4.624847	15.211603	7.264224	-20.233912	91.916676	12.693726	9.037749	-2.955937	-10.222447	10.897182	-15.865588	123.335778	8.530701	5.694611	-8.006155	-16.011777
5.533333	-3.684873	-7.843798	94.629824	0.185984	1.170157	0.352160	0.137092	-2.786728	-0.115107	0.753104	0.013144	16.254622	8.105503	0.000000	1.459547	1.925713	-4.095454	2.224790	0.038830	10.983775	8.372718	0.000000	0.055923	0.059159	0.948008	0.103856	0.078681	1.007258	0.091877	0.143839	1.007258	0.063915	0.143839	0.829507	0.051931	0.120637	0.770256	0.031955	0.091637	0.711006	0.399456	0.669218	5.272536	0.000000	0.000000	11.899254	-4.625446	14.658776	7.913468	-20.468988	89.901485	13.120511	10.419627	-3.175809	-10.645497	11.364293	-16.090458	122.587337	8.199578	5.354884	-6.197843	-15.658782
5.550000	-3.753857	-8.009891	94.852992	0.186006	1.170087	0.353504	0.360723	-2.856272	-0.422088	0.799373	0.013952	16.229017	8.076044	0.000000	1.802424	1.987571	-3.879008	2.503168	0.043689	10.587890	8.110280	0.000000	0.067949	0.040007	0.873626	0.126188	0.053209	0.928228	0.111634	0.097273	0.928228	0.077659	0.097273	0.764423	0.063098	0.081582	0.709821	0.038826	0.061971	0.655220	0.485354	0.452568	4.858848	0.000000	0.000000	12.314046	-4.650610	13.987987	8.657055	-20.638532	88.715089	13.441953	11.498742	-3.310109	-11.005408	11.799896	-16.220459	123.009529	7.693528	5.306376	-4.601603	-14.931570
5.566667	-3.818305	-8.165092	95.079982	0.186013	1.169917	0.354756	0.565747	-2.921841	-0.781580	0.843405	0.014720	16.229256	8.119558	0.000000	2.129915	2.041796	-3.749965	2.802368	0.048911	10.214181	7.909020	0.000000	0.078757	0.021466	0.796509	0.146260	0.028549	0.846291	0.129390	0.052191	0.846291	0.090012	0.052191	0.696946	0.073134	0.043773	0.647164	0.045002	0.033250	0.597382	0.562554	0.242823	4.429946	0.000000	0.000000	12.779539	-4.715793	13.242626	9.416710	-20.746530	88.121693	13.650435	12.360153	-3.324439	-11.286317	12.199661	-16.223256	124.872543	6.968714	5.192283	-3.267470	-13.946969
5.583333	-3.877214	-8.302763	95.305133	0.185959	1.169654	0.355883	0.744937	-2.984482	-1.156534	0.887005	0.015481	16.256276	8.196109	0.000000	2.430673	2.091817	-3.642070	3.111751	0.054310	9.867501	7.690332	0.000000	0.087716	0.005222	0.717616	0.162897	0.006945	0.762467	0.144108	0.012696	0.762467	0.100250	0.012696	0.627914	0.081453	0.010648	0.583063	0.050121	0.008089	0.538212	0.626544	0.059070	3.991165	0.000000	0.000000	13.280844	-4.792443	12.546592	10.173134	-20.795533	88.193776	13.773164	12.921649	-3.275337	-11.475544	12.561310	-16.098807	127.622772	6.099699	4.912004	-2.221494	-12.903949
5.600000	-3.917274	-8.410219	95.526653	0.185831	1.169309	0.356860	0.881648	-3.027700	-1.533378	0.921739	0.016087	16.312038	8.290578	0.000000	2.681924	2.129325	-3.429928	3.403879	0.059409	9.549191	7.320180	0.000000	0.093319	-0.006238	0.639624	0.173304	-0.008296	0.679600	0.153315	-0.015166	0.679600	0.106655	-0.015166	0.559671	0.086656	-0.012720	0.519694	0.053323	-0.009662	0.479718	0.666572	-0.070560	3.557397	0.000000	0.000000	13.782317	-4.904913	11.934153	10.892349	-20.794055	88.812297	13.840475	13.236831	-3.216378	-11.544600	12.906674	-15.888695	130.496864	5.270907	4.412058	-1.393731	-12.094927
5.616667	-3.937855	-8.502295	95.728110	0.185572	1.168871	0.357674	0.997169	-3.059350	-1.900731	0.958096	0.016722	16.386150	8.417190	0.000000	2.906315	2.159807	-3.253073	3.691657	0.064432	9.310481	6.966023	0.000000	0.098299	-0.011998	0.571817	0.182551	-0.015958	0.607556	0.161495	-0.029172	0.607556	0.112346	-0.029172	0.500340	0.091280	-0.024467	0.464602	0.056168	-0.018585	0.428863	0.702138	-0.135725	3.180277	0.000000	0.000000	14.284154	-5.034062	11.423028	11.531546	-20.770171	89.841026	13.876193	13.360451	-3.071108	-11.506635	13.246606	-15.605171	132.775481	4.599851	4.038214	-0.776201	-11.520847
5.633333	-3.928959	-8.561386	95.909855	0.185220	1.168374	0.358260	1.066504	-3.062545	-2.255793	0.989214	0.017265	16.471361	8.567558	0.000000	3.077924	2.168313	-3.041416	3.955452	0.069036	9.166661	6.576995	0.000000	0.100771	-0.010728	0.515573	0.187141	-0.014268	0.547796	0.165556	-0.026084	0.547796	0.115171	-0.026084	0.451126	0.093576	-0.021876	0.418903	0.057580	-0.016618	0.386680	0.719795	-0.121357	2.867462	0.000000	0.000000	14.734047	-5.204524	11.035548	12.065205	-20.701143	91.201589	13.855204	13.170293	-2.882946	-11.356824	13.577464	-15.245019	134.801487	4.050326	3.473392	-0.195821	-11.240026
5.650000	-3.913139	-8.572994	96.069960	0.184786	1.167863	0.358589	1.066802	-3.059079	-2.614941	1.010673	0.017640	16.568602	8.760224	0.000000	3.164147	2.175184	-2.851089	4.157032	0.072554	9.119313	6.265882	0.000000	0.098194	-0.005595	0.472775	0.182357	-0.007441	0.502323	0.161324	-0.013603	0.502323	0.112226	-0.013603	0.413678	0.091183	-0.011409	0.384129	0.056108	-0.008666	0.354581	0.701393	-0.063290	2.629431	0.000000	0.000000	15.122277	-5.408882	10.710240	12.503832	-20.600074	92.550003	13.846340	12.897811	-2.757631	-11.033936	13.930295	-14.845385	136.355809	3.748728	2.902560	0.084083	-11.240568
5.666667	-3.898769	-8.542534	96.221450	0.184299	1.167369	0.358615	0.997966	-3.054036	-2.952497	1.023707	0.017867	16.657348	8.933236	0.000000	3.175085	2.186789	-2.685349	4.310238	0.075228	9.135373	6.059912	0.000000	0.092345	0.001738	0.441217	0.171494	0.002311	0.468793	0.151713	0.004225	0.468793	0.105541	0.004225	0.386064	0.085751	0.003544	0.358488	0.052766	0.002692	0.330912	0.659610	0.019658	2.453914	0.000000	0.000000	15.414664	-5.631693	10.487706	12.862267	-20.409400	94.347201	13.757821	12.381071	-2.816785	-10.669020	14.266957	-14.475951	136.771225	3.741384	2.539680	0.429826	-11.580097
5.683333	-3.873158	-8.476191	96.345563	0.183773	1.166919	0.358307	0.869060	-3.036016	-3.208193	1.025437	0.017897	16.715332	9.038454	0.000000	3.102296	2.193644	-2.463373	4.383259	0.076502	9.172908	5.813839	0.000000	0.084670	0.012468	0.421751	0.157241	0.016582	0.448111	0.139105	0.030315	0.448111	0.096770	0.030315	0.369032	0.078625	0.025425	0.342673	0.048381	0.019313	0.316313	0.604791	0.141041	2.345653	0.000000	0.000000	15.644143	-5.839714	10.375066	13.157201	-20.124968	96.473052	13.550081	11.935594	-3.042013	-10.263461	14.580700	-14.078740	136.431236	3.948711	2.341509	0.543328	-12.198884
5.700000	-3.849344	-8.365207	96.453874	0.183239	1.166564	0.357616	0.664083	-3.014115	-3.406541	1.013850	0.017695	16.745705	9.094681	0.000000	2.933833	2.203328	-2.173571	4.382433	0.076488	9.208210	5.518886	0.000000	0.075287	0.024201	0.412316	0.139816	0.032187	0.438085	0.123689	0.058842	0.438085	0.086046	0.058842	0.360776	0.069912	0.049350	0.335007	0.043019	0.037487	0.309237	0.537769	0.273764	2.293176	0.000000	0.000000	15.774233	-6.032238	10.354517	13.390356	-19.707221	99.456454	13.150411	11.227558	-3.412917	-9.859978	14.831889	-13.637459	135.911222	4.158349	2.255454	0.604754	-12.944071
5.716667	-3.830372	-8.212982	96.554191	0.182708	1.166326	0.356553	0.388225	-2.991232	-3.578177	0.989566	0.017271	16.755789	9.143105	0.000000	2.674268	2.219989	-1.692202	4.308889	0.075204	9.207355	4.993896	0.000000	0.065277	0.036381	0.410698	0.121227	0.048386	0.436367	0.107244	0.088456	0.436367	0.074606	0.088456	0.359361	0.060617	0.074187	0.333692	0.037300	0.056353	0.308024	0.466270	0.411544	2.284181	0.000000	0.000000	15.793947	-6.193246	10.459867	13.541974	-19.170886	103.036639	12.592856	10.409704	-3.894158	-9.497789	15.034034	-13.128989	135.802295	4.293853	2.113015	0.534983	-13.704697
